<?xml version="1.0" encoding="UTF-8" standalone="no"?>
<!DOCTYPE svg PUBLIC "-//W3C//DTD SVG 1.1//EN"
 "http://www.w3.org/Graphics/SVG/1.1/DTD/svg11.dtd">
<!-- Generated by graphviz version 2.38.0 (20140413.2041)
 -->
<!-- Title: models_diagram Pages: 1 -->
<svg width="482pt" height="274pt"
 viewBox="0.00 0.00 481.55 274.00" xmlns="http://www.w3.org/2000/svg" xmlns:xlink="http://www.w3.org/1999/xlink">
<g id="graph0" class="graph" transform="scale(1 1) rotate(0) translate(4 270)">
<title>models_diagram</title>
<polygon fill="none" stroke="none" points="-4,4 -4,-270 477.55,-270 477.55,4 -4,4"/>
<!-- _diagram_info -->
<g id="node1" class="node"><title>_diagram_info</title>
<text text-anchor="start" x="8" y="-237.6" font-family="Times,serif" font-size="13.00">Models diagram</text>
<text text-anchor="start" x="8" y="-224.6" font-family="Times,serif" font-size="13.00">Date: Aug 15 2016 &#45; 01:40</text>
<text text-anchor="start" x="8" y="-211.6" font-family="Times,serif" font-size="13.00">Migration version: 20160815063627</text>
<text text-anchor="start" x="8" y="-198.6" font-family="Times,serif" font-size="13.00">Generated by RailRoady 1.5.1</text>
<text text-anchor="start" x="8" y="-185.6" font-family="Times,serif" font-size="13.00">http://railroady.prestonlee.com</text>
</g>
<!-- Education -->
<g id="node2" class="node"><title>Education</title>
<path fill="none" stroke="black" d="M237.825,-165.5C237.825,-165.5 461.55,-165.5 461.55,-165.5 467.55,-165.5 473.55,-171.5 473.55,-177.5 473.55,-177.5 473.55,-253.5 473.55,-253.5 473.55,-259.5 467.55,-265.5 461.55,-265.5 461.55,-265.5 237.825,-265.5 237.825,-265.5 231.825,-265.5 225.825,-259.5 225.825,-253.5 225.825,-253.5 225.825,-177.5 225.825,-177.5 225.825,-171.5 231.825,-165.5 237.825,-165.5"/>
<text text-anchor="middle" x="349.688" y="-250.3" font-family="Times,serif" font-size="14.00">Education</text>
<polyline fill="none" stroke="black" points="225.825,-243.5 473.55,-243.5 "/>
<text text-anchor="start" x="233.825" y="-228.3" font-family="Times,serif" font-size="14.00">id :integer</text>
<text text-anchor="start" x="233.825" y="-214.3" font-family="Times,serif" font-size="14.00">school :character varying</text>
<text text-anchor="start" x="233.825" y="-200.3" font-family="Times,serif" font-size="14.00">career :character varying</text>
<text text-anchor="start" x="233.825" y="-186.3" font-family="Times,serif" font-size="14.00">created_at :timestamp without time zone</text>
<text text-anchor="start" x="233.825" y="-172.3" font-family="Times,serif" font-size="14.00">updated_at :timestamp without time zone</text>
</g>
<!-- User -->
<g id="node3" class="node"><title>User</title>
<path fill="none" stroke="black" d="M237.825,-0.5C237.825,-0.5 461.55,-0.5 461.55,-0.5 467.55,-0.5 473.55,-6.5 473.55,-12.5 473.55,-12.5 473.55,-116.5 473.55,-116.5 473.55,-122.5 467.55,-128.5 461.55,-128.5 461.55,-128.5 237.825,-128.5 237.825,-128.5 231.825,-128.5 225.825,-122.5 225.825,-116.5 225.825,-116.5 225.825,-12.5 225.825,-12.5 225.825,-6.5 231.825,-0.5 237.825,-0.5"/>
<text text-anchor="middle" x="349.688" y="-113.3" font-family="Times,serif" font-size="14.00">User</text>
<polyline fill="none" stroke="black" points="225.825,-106.5 473.55,-106.5 "/>
<text text-anchor="start" x="233.825" y="-91.3" font-family="Times,serif" font-size="14.00">email :character varying</text>
<text text-anchor="start" x="233.825" y="-77.3" font-family="Times,serif" font-size="14.00">name :character varying</text>
<text text-anchor="start" x="233.825" y="-63.3" font-family="Times,serif" font-size="14.00">year :character varying</text>
<text text-anchor="start" x="233.825" y="-49.3" font-family="Times,serif" font-size="14.00">id :integer</text>
<text text-anchor="start" x="233.825" y="-35.3" font-family="Times,serif" font-size="14.00">created_at :timestamp without time zone</text>
<text text-anchor="start" x="233.825" y="-21.3" font-family="Times,serif" font-size="14.00">updated_at :timestamp without time zone</text>
<text text-anchor="start" x="233.825" y="-7.3" font-family="Times,serif" font-size="14.00">education_id :integer</text>
</g>
<!-- Education&#45;&gt;User -->
<g id="edge1" class="edge"><title>Education&#45;&gt;User</title>
<path fill="none" stroke="#b17511" d="M349.688,-157.218C349.688,-151.245 349.688,-145.115 349.688,-138.995"/>
<ellipse fill="none" stroke="#b17511" cx="349.688" cy="-161.299" rx="4" ry="4"/>
<polygon fill="#b17511" stroke="#b17511" points="349.688,-138.732 354.188,-128.732 349.688,-133.732 349.688,-128.732 349.688,-128.732 349.688,-128.732 349.688,-133.732 345.188,-128.732 349.688,-138.732 349.688,-138.732"/>
</g>
</g>
</svg>
