<?xml version="1.0" encoding="UTF-8" standalone="no"?>
<!DOCTYPE svg PUBLIC "-//W3C//DTD SVG 1.1//EN"
 "http://www.w3.org/Graphics/SVG/1.1/DTD/svg11.dtd">
<!-- Generated by graphviz version 2.38.0 (20140413.2041)
 -->
<!-- Title: models_diagram Pages: 1 -->
<svg width="326pt" height="153pt"
 viewBox="0.00 0.00 325.65 153.00" xmlns="http://www.w3.org/2000/svg" xmlns:xlink="http://www.w3.org/1999/xlink">
<g id="graph0" class="graph" transform="scale(1 1) rotate(0) translate(4 149)">
<title>models_diagram</title>
<polygon fill="none" stroke="none" points="-4,4 -4,-149 321.648,-149 321.648,4 -4,4"/>
<!-- _diagram_info -->
<g id="node1" class="node"><title>_diagram_info</title>
<text text-anchor="start" x="8" y="-130.6" font-family="Times,serif" font-size="13.00">Models diagram</text>
<text text-anchor="start" x="8" y="-117.6" font-family="Times,serif" font-size="13.00">Date: Aug 15 2016 &#45; 01:40</text>
<text text-anchor="start" x="8" y="-104.6" font-family="Times,serif" font-size="13.00">Migration version: 20160815063627</text>
<text text-anchor="start" x="8" y="-91.6" font-family="Times,serif" font-size="13.00">Generated by RailRoady 1.5.1</text>
<text text-anchor="start" x="8" y="-78.6" font-family="Times,serif" font-size="13.00">http://railroady.prestonlee.com</text>
</g>
<!-- Education -->
<g id="node2" class="node"><title>Education</title>
<ellipse fill="none" stroke="black" cx="271.688" cy="-108.5" rx="45.92" ry="18"/>
<text text-anchor="middle" x="271.688" y="-104.3" font-family="Times,serif" font-size="14.00">Education</text>
</g>
<!-- User -->
<g id="node3" class="node"><title>User</title>
<ellipse fill="none" stroke="black" cx="271.688" cy="-18" rx="27" ry="18"/>
<text text-anchor="middle" x="271.688" y="-13.8" font-family="Times,serif" font-size="14.00">User</text>
</g>
<!-- Education&#45;&gt;User -->
<g id="edge1" class="edge"><title>Education&#45;&gt;User</title>
<path fill="none" stroke="#91b12a" d="M271.688,-82.189C271.688,-70.9711 271.688,-57.7517 271.688,-46.3113"/>
<ellipse fill="none" stroke="#91b12a" cx="271.688" cy="-86.4363" rx="4" ry="4"/>
<polygon fill="#91b12a" stroke="#91b12a" points="271.688,-46.0113 276.188,-36.0113 271.688,-41.0113 271.688,-36.0113 271.688,-36.0113 271.688,-36.0113 271.688,-41.0113 267.188,-36.0113 271.688,-46.0113 271.688,-46.0113"/>
</g>
</g>
</svg>
